<?xml version="1.0" encoding="UTF-8"?><svg id="Capa_1" xmlns="http://www.w3.org/2000/svg" viewBox="0 0 16 16"><defs><style>.cls-1,.cls-2{fill:none;}.cls-1,.cls-2,.cls-3,.cls-4,.cls-5,.cls-6,.cls-7,.cls-8{stroke-miterlimit:10;}.cls-1,.cls-2,.cls-5{stroke-linecap:round;}.cls-1,.cls-2,.cls-6,.cls-7{stroke-width:.19px;}.cls-1,.cls-8{stroke:#010200;}.cls-2,.cls-3,.cls-4,.cls-5,.cls-6,.cls-7{stroke:#000;}.cls-3{fill:#c3c3c3;}.cls-3,.cls-5{stroke-width:.14px;}.cls-4{fill:#fff;stroke-width:.17px;}.cls-6{fill:#ed1b25;}.cls-7{fill:#fff200;}.cls-8{fill:#7f7f7f;stroke-width:.12px;}</style></defs><path class="cls-1" d="M7.27,2.92s.77,.07,.8-.62c.03-.93-2.03-.85-2.03-.35,0,.43,.61,.43,.95,.41,.47-.03,1.59-.35,1.37-1.29-.24-1.03-1.84-.82-1.84-.82,0,0-1.15,.07-1.18,1.29"/><path class="cls-7" d="M12.34,6.81c0,1.29-1.14,2.35-1.65,3.12-.37,.56-.42,1.54-.42,1.54H5.72s-.13-1.22-.29-1.51c-.64-1.09-1.78-1.86-1.78-3.15,0-2.19,1.95-3.96,4.35-3.96s4.34,1.78,4.34,3.96Z"/><circle class="cls-4" cx="7.88" cy="6.24" r="2.24"/><path class="cls-8" d="M10.51,12.52H5.48c-.09,0-.16-.07-.16-.16v-.85c0-.09,.07-.16,.16-.16h5.02c.09,0,.16,.07,.16,.16v.85c.01,.09-.07,.16-.15,.16Z"/><path class="cls-8" d="M10.51,13.75H5.48c-.09,0-.16-.07-.16-.16v-.85c0-.09,.07-.16,.16-.16h5.02c.09,0,.16,.07,.16,.16v.85c.01,.09-.07,.16-.15,.16Z"/><path class="cls-8" d="M10.51,14.98H5.48c-.09,0-.16-.07-.16-.16v-.85c0-.09,.07-.16,.16-.16h5.02c.09,0,.16,.07,.16,.16v.85c.01,.09-.07,.16-.15,.16Z"/><path class="cls-3" d="M9.74,15.12c0,.36-.78,.65-1.75,.65s-1.75-.29-1.75-.65c0-.05,0-.09,.04-.14h3.42c.03,.05,.04,.09,.04,.14Z"/><path class="cls-2" d="M4.74,8.02c.12,.17,1.09,1.53,2.86,1.64,2.06,.12,3.26-1.58,3.32-1.67"/><path class="cls-6" d="M4.92,11.48c-.15,.07-.71,.14-1.14,0-.64-.22-.89-.72-.88-1.19,.02-.66,.38-1.5,1.86-2.22,.44,.4,.8,1,1.99,1.43,.1,.03-.28,.16-.44,.24-.39,.22-.82,.53-.99,.85-.15,.32-.12,.76-.4,.89Z"/><circle class="cls-5" cx="6.86" cy="5.34" r=".83"/><path class="cls-2" d="M3.88,10.59s-.02-.54,.34-.95c.31-.35,.61-.5,.93-.51"/></svg>