<?xml version="1.0" encoding="UTF-8"?>
<svg id="Capa_1" data-name="Capa 1" xmlns="http://www.w3.org/2000/svg" viewBox="0 0 813.17 1468.5">
  <defs>
    <style>
      .cls-1, .cls-2, .cls-3, .cls-4, .cls-5, .cls-6, .cls-7 {
        stroke-miterlimit: 10;
      }

      .cls-1, .cls-3, .cls-4 {
        stroke-linecap: round;
      }

      .cls-1, .cls-3, .cls-5, .cls-6, .cls-7 {
        stroke: #000;
      }

      .cls-1, .cls-7 {
        stroke-width: 12.02px;
      }

      .cls-2 {
        fill: #7f7f7f;
        stroke-width: 10.01px;
      }

      .cls-2, .cls-4 {
        stroke: #010200;
      }

      .cls-3, .cls-4 {
        fill: none;
      }

      .cls-3, .cls-4, .cls-5 {
        stroke-width: 16.02px;
      }

      .cls-5 {
        fill: #fff200;
      }

      .cls-6 {
        fill: #fff;
        stroke-width: 14.02px;
      }

      .cls-7 {
        fill: #c3c3c3;
      }
    </style>
  </defs>
  <path class="cls-4" d="M376.29,241.68s64.32,5.93,66.51-51.51c2.97-78-169.23-71.2-169.09-29.43,.12,36.34,50.73,35.79,79.09,33.96,39.06-2.52,133.02-29.43,114.91-107.55C447.65,.65,313.75,18.09,313.75,18.09c0,0-95.95,6.23-98.49,108.12"/>
  <path class="cls-5" d="M800.88,567.27c0,107.64-95.49,196.77-138.02,260.95-31.13,46.98-35.37,128.78-35.37,128.78H247.24s-10.62-102.19-24.52-126.01c-53.54-91.72-148.89-156.11-148.89-263.72,0-182.88,162.76-331.14,363.54-331.14s363.51,148.27,363.51,331.14Z"/>
  <circle class="cls-6" cx="427.89" cy="518.88" r="187.65"/>
  <rect class="cls-2" x="213.98" y="946.58" width="446.61" height="97.64" rx="13.45" ry="13.45"/>
  <rect class="cls-2" x="213.98" y="1049.6" width="446.61" height="97.64" rx="13.45" ry="13.45"/>
  <rect class="cls-2" x="213.98" y="1152.62" width="446.61" height="97.64" rx="13.45" ry="13.45"/>
  <path class="cls-7" d="M583.39,1261.56c0,30.15-65.42,54.6-146.1,54.6s-146.1-24.45-146.1-54.6c0-3.88,1.09-7.66,3.15-11.31h285.9c2.06,3.65,3.15,7.43,3.15,11.31Z"/>
  <path class="cls-3" d="M289.55,805.54c36.47-22.1,82.62-40.22,138.22-43.5,62.26-3.67,115.08,12.52,157.39,35.04"/>
  <circle class="cls-1" cx="427.89" cy="527.51" r="69.06"/>
</svg>