<?xml version="1.0" encoding="UTF-8"?>
<svg id="Capa_1" data-name="Capa 1" xmlns="http://www.w3.org/2000/svg" viewBox="0 0 813.17 1468.5">
  <defs>
    <style>
      .cls-1, .cls-2, .cls-3, .cls-4, .cls-5, .cls-6, .cls-7, .cls-8 {
        stroke-miterlimit: 10;
      }

      .cls-1, .cls-3, .cls-4 {
        stroke-linecap: round;
      }

      .cls-1, .cls-3, .cls-5, .cls-6, .cls-7, .cls-8 {
        stroke: #000;
      }

      .cls-1, .cls-8 {
        stroke-width: 12.02px;
      }

      .cls-2 {
        fill: #7f7f7f;
        stroke-width: 10.01px;
      }

      .cls-2, .cls-4 {
        stroke: #010200;
      }

      .cls-3, .cls-4 {
        fill: none;
      }

      .cls-3, .cls-4, .cls-5, .cls-6 {
        stroke-width: 16.02px;
      }

      .cls-9 {
        letter-spacing: 0em;
      }

      .cls-5 {
        fill: #ed1b25;
      }

      .cls-6 {
        fill: #fff200;
      }

      .cls-7 {
        fill: #fff;
        stroke-width: 14.02px;
      }

      .cls-10 {
        font-family: CooperBlack, 'Cooper Black';
        font-size: 143.1px;
      }

      .cls-8 {
        fill: #c3c3c3;
      }
    </style>
  </defs>
  <text class="cls-10" transform="translate(175.3 1456.51)"><tspan x="0" y="0">f</tspan><tspan class="cls-9" x="60.72" y="0">r</tspan><tspan x="138.21" y="0">iki.io</tspan></text>
  <path class="cls-4" d="M376.29,241.68s64.32,5.93,66.51-51.51c2.97-78-169.23-71.2-169.09-29.43,.12,36.34,50.73,35.79,79.09,33.96,39.06-2.52,133.02-29.43,114.91-107.55C447.65,.65,313.75,18.09,313.75,18.09c0,0-95.95,6.23-98.49,108.12"/>
  <path class="cls-6" d="M800.88,567.27c0,107.64-95.49,196.77-138.02,260.95-31.13,46.98-35.37,128.78-35.37,128.78H247.24s-10.62-102.19-24.52-126.01c-53.54-91.72-148.89-156.11-148.89-263.72,0-182.88,162.76-331.14,363.54-331.14s363.51,148.27,363.51,331.14Z"/>
  <circle class="cls-7" cx="427.89" cy="518.88" r="187.65"/>
  <rect class="cls-2" x="213.98" y="946.58" width="446.61" height="97.64" rx="13.45" ry="13.45"/>
  <rect class="cls-2" x="213.98" y="1049.6" width="446.61" height="97.64" rx="13.45" ry="13.45"/>
  <rect class="cls-2" x="213.98" y="1152.62" width="446.61" height="97.64" rx="13.45" ry="13.45"/>
  <path class="cls-8" d="M583.39,1261.56c0,30.15-65.42,54.6-146.1,54.6s-146.1-24.45-146.1-54.6c0-3.88,1.09-7.66,3.15-11.31h285.9c2.06,3.65,3.15,7.43,3.15,11.31Z"/>
  <path class="cls-3" d="M165.3,668.03c9.55,13.97,90.59,128.24,238.87,136.98,172.52,10.17,272.56-132.15,277.36-139.25"/>
  <path class="cls-5" d="M180.02,957c-12.51,5.49-59.44,11.88-95.1,0-53.45-17.81-74.6-59.47-73.59-98.78,1.42-54.91,31.7-125.1,155.36-185.33,36.53,33.62,67.1,83.44,166.16,119.38,8.02,2.91-23.72,13.33-36.51,20.38-32.65,18-68.39,44.28-82.36,71.32-13.16,25.47-10.19,62.6-33.96,73.02Z"/>
  <circle class="cls-1" cx="342.63" cy="444.22" r="69.06"/>
  <path class="cls-3" d="M92.85,882.57s-2-45.55,28.3-79.81c26.04-29.43,50.94-41.6,78.11-42.6"/>
</svg>