<?xml version="1.0" encoding="UTF-8"?>
<!DOCTYPE svg PUBLIC "-//W3C//DTD SVG 1.1//EN" "http://www.w3.org/Graphics/SVG/1.1/DTD/svg11.dtd">
<svg xmlns="http://www.w3.org/2000/svg" version="1.1" width="512px" height="810px" style="shape-rendering:geometricPrecision; text-rendering:geometricPrecision; image-rendering:optimizeQuality; fill-rule:evenodd; clip-rule:evenodd" xmlns:xlink="http://www.w3.org/1999/xlink">
<g><path style="opacity:0.949" fill="#050502" d="M 204.5,30.5 C 219.269,29.8915 233.936,30.7248 248.5,33C 281.46,40.9511 294.294,61.4511 287,94.5C 283.757,100.574 279.59,105.907 274.5,110.5C 277.638,120.639 276.305,130.139 270.5,139C 330.918,140.631 380.751,164.131 420,209.5C 442.729,238.682 454.563,271.849 455.5,309C 454.059,334.655 446.226,358.155 432,379.5C 416.386,401.448 400.386,423.115 384,444.5C 375.9,460.566 371.067,477.566 369.5,495.5C 375.767,494.736 380.267,497.07 383,502.5C 383.667,516.5 383.667,530.5 383,544.5C 382.215,546.286 381.049,547.786 379.5,549C 381.049,550.214 382.215,551.714 383,553.5C 383.667,567.5 383.667,581.5 383,595.5C 382.426,597.492 381.259,598.992 379.5,600C 381.041,601.579 382.208,603.413 383,605.5C 383.667,619.5 383.667,633.5 383,647.5C 381.74,650.428 379.573,652.261 376.5,653C 364.505,653.5 352.505,653.667 340.5,653.5C 340.623,662.083 336.956,668.583 329.5,673C 309.029,683.061 287.362,687.561 264.5,686.5C 245.623,687.132 227.29,684.298 209.5,678C 200.588,674.976 193.754,669.476 189,661.5C 188.503,658.854 188.336,656.187 188.5,653.5C 178.42,653.923 168.42,653.423 158.5,652C 156.959,650.421 155.792,648.587 155,646.5C 154.333,632.833 154.333,619.167 155,605.5C 155.792,603.413 156.959,601.579 158.5,600C 156.951,598.786 155.785,597.286 155,595.5C 154.333,581.833 154.333,568.167 155,554.5C 155.346,552.152 156.513,550.319 158.5,549C 156.513,547.681 155.346,545.848 155,543.5C 154.333,529.833 154.333,516.167 155,502.5C 157.843,497.148 162.343,494.815 168.5,495.5C 167.544,485.427 166.044,475.427 164,465.5C 159.293,474.645 155.96,484.312 154,494.5C 149.709,505.574 141.542,511.074 129.5,511C 103.42,515.417 81.2536,508.25 63,489.5C 52.3018,473.91 49.3018,456.91 54,438.5C 59.8604,417.635 71.0271,400.135 87.5,386C 93.2206,381.279 99.2206,376.946 105.5,373C 82.2895,340.414 76.7895,304.914 89,266.5C 106.517,212.98 141.351,175.48 193.5,154C 213.138,146.341 233.472,141.674 254.5,140C 264.126,135.259 268.46,127.426 267.5,116.5C 251.704,123.949 235.038,127.949 217.5,128.5C 209.251,128.269 201.251,126.769 193.5,124C 183.04,117.299 180.707,108.466 186.5,97.5C 192.74,91.9162 200.073,88.7495 208.5,88C 228.779,84.407 247.779,87.7403 265.5,98C 267,99.5 268.5,101 270,102.5C 282.205,89.9398 284.205,75.9398 276,60.5C 267.803,49.8096 256.969,43.3096 243.5,41C 230.549,38.3674 217.549,38.0341 204.5,40C 176.864,45.975 162.698,63.1417 162,91.5C 156.955,94.986 154.122,93.6527 153.5,87.5C 156.132,55.5392 173.132,36.5392 204.5,30.5 Z M 215.5,95.5 C 229.858,94.4307 243.525,96.9307 256.5,103C 258.585,104.041 260.252,105.541 261.5,107.5C 253.399,113.039 244.399,116.539 234.5,118C 223.082,120.244 211.749,119.911 200.5,117C 193.487,114.721 190.987,110.221 193,103.5C 199.981,99.1191 207.481,96.4525 215.5,95.5 Z"/></g>
<g><path style="opacity:1" fill="#fdf000" d="M 251.5,148.5 C 316.42,144.068 370.254,166.068 413,214.5C 439.376,247.664 450.043,285.331 445,327.5C 440.79,344.249 434.123,359.915 425,374.5C 409.386,396.448 393.386,418.115 377,439.5C 367.621,457.346 362.121,476.346 360.5,496.5C 299.5,496.5 238.5,496.5 177.5,496.5C 175.335,482.849 173.501,469.183 172,455.5C 186.221,443.049 202.221,433.382 220,426.5C 273.287,439.51 321.12,428.677 363.5,394C 375.076,384.426 385.243,373.592 394,361.5C 394.808,359.421 394.641,357.421 393.5,355.5C 392.232,354.572 390.899,354.405 389.5,355C 370.616,379.559 347.283,398.559 319.5,412C 263.874,434.507 212.874,426.84 166.5,389C 155.434,378.603 145.101,367.603 135.5,356C 131.793,355.186 129.46,356.686 128.5,360.5C 123.341,362.912 118.341,365.579 113.5,368.5C 94.1813,344.439 87.348,317.106 93,286.5C 103.518,235.999 131.018,197.832 175.5,172C 199.382,158.98 224.715,151.147 251.5,148.5 Z"/></g>
<g><path style="opacity:1" fill="#050503" d="M 248.5,188.5 C 291.4,184.206 324.567,199.872 348,235.5C 370.668,280.152 364.834,320.652 330.5,357C 299.337,382.639 264.67,388.639 226.5,375C 183.838,353.865 164.338,319.365 168,271.5C 177.451,226.883 204.285,199.217 248.5,188.5 Z"/></g>
<g><path style="opacity:1" fill="#fdfdfd" d="M 249.5,195.5 C 293.97,191.644 326.47,209.311 347,248.5C 361.563,287.588 354.396,322.088 325.5,352C 297.863,374.989 266.863,380.989 232.5,370C 190.242,350.331 171.075,317.164 175,270.5C 176.608,261.342 179.608,252.675 184,244.5C 184.41,268.739 196.577,282.405 220.5,285.5C 247.509,282.656 260.342,267.656 259,240.5C 251.694,218.525 236.527,208.692 213.5,211C 224.627,203.577 236.627,198.41 249.5,195.5 Z"/></g>
<g><path style="opacity:1" fill="#ea1a24" d="M 131.5,367.5 C 132.552,367.351 133.552,367.517 134.5,368C 154.487,392.657 179.154,410.99 208.5,423C 189.877,430.626 173.71,441.792 160,456.5C 157.417,459.997 155.084,463.664 153,467.5C 150.664,475.511 148.331,483.511 146,491.5C 144.877,494.249 143.377,496.749 141.5,499C 136.806,501.424 131.806,502.757 126.5,503C 104.481,506.215 85.6473,500.049 70,484.5C 59.2437,467.476 57.577,449.476 65,430.5C 73.2644,412.474 85.4311,397.641 101.5,386C 111.143,379.177 121.143,373.011 131.5,367.5 Z"/></g>
<g><path style="opacity:1" fill="#0c0201" d="M 143.5,401.5 C 146.978,401.184 150.312,401.684 153.5,403C 154.935,405.267 154.602,407.267 152.5,409C 136.79,410.438 123.957,417.272 114,429.5C 104.977,441.233 100.31,454.566 100,469.5C 98.2739,470.576 96.4406,470.743 94.5,470C 92.2777,455.313 95.4444,441.813 104,429.5C 114.062,415.577 127.229,406.243 143.5,401.5 Z"/></g>
<g><path style="opacity:1" fill="#7e7e7e" d="M 162.5,501.5 C 233.834,501.333 305.167,501.5 376.5,502C 377.656,515.758 377.823,529.592 377,543.5C 305.237,544.665 233.404,544.831 161.5,544C 160.842,537.077 160.509,530.077 160.5,523C 160.536,515.598 161.203,508.431 162.5,501.5 Z"/></g>
<g><path style="opacity:1" fill="#7e7e7e" d="M 162.5,552.5 C 233.501,552.333 304.501,552.5 375.5,553C 376,553.5 376.5,554 377,554.5C 377.833,568.179 377.666,581.846 376.5,595.5C 305.207,596.663 233.874,596.83 162.5,596C 162,595.5 161.5,595 161,594.5C 160.333,581.167 160.333,567.833 161,554.5C 161.717,553.956 162.217,553.289 162.5,552.5 Z"/></g>
<g><path style="opacity:1" fill="#7e7e7e" d="M 161.5,604.5 C 233.167,604.333 304.834,604.5 376.5,605C 377.656,618.758 377.823,632.592 377,646.5C 305.898,647.428 234.731,647.928 163.5,648C 162.584,647.626 161.75,647.126 161,646.5C 160.186,632.425 160.352,618.425 161.5,604.5 Z"/></g>
<g><path style="opacity:1" fill="#c1c1c1" d="M 194.5,653.5 C 241.167,653.5 287.833,653.5 334.5,653.5C 334.706,657.587 333.373,661.087 330.5,664C 317.872,672.604 303.872,677.604 288.5,679C 262.253,682.757 236.586,680.424 211.5,672C 204.816,669.306 199.316,665.14 195,659.5C 194.505,657.527 194.338,655.527 194.5,653.5 Z"/></g>
</svg>
